<mxfile host="app.diagrams.net" modified="2021-01-11T07:42:08.504Z" agent="5.0 (Windows NT 10.0; Win64; x64) AppleWebKit/537.36 (KHTML, like Gecko) Chrome/87.0.4280.88 Safari/537.36" etag="MrPKHgktiy709V4keBH_" version="14.1.9" type="github">
  <diagram id="qB0sNi3eg7d9RXqyTc0w" name="페이지-1">
    <mxGraphModel dx="2249" dy="762" grid="1" gridSize="10" guides="1" tooltips="1" connect="1" arrows="1" fold="1" page="1" pageScale="1" pageWidth="827" pageHeight="1169" math="0" shadow="0">
      <root>
        <mxCell id="0" />
        <mxCell id="1" parent="0" />
        <mxCell id="9d45E5E9wvySiTXaYXBf-32" value="&lt;h1&gt;&lt;span style=&quot;font-size: 50px&quot;&gt;Main Homepage2&lt;/span&gt;&lt;/h1&gt;" style="text;html=1;align=center;verticalAlign=middle;resizable=0;points=[];autosize=1;" parent="1" vertex="1">
          <mxGeometry x="25" y="40" width="430" height="60" as="geometry" />
        </mxCell>
        <mxCell id="7PQLIUIUxmbF9pdEmRp1-5" value="" style="strokeWidth=1;shadow=0;dashed=0;align=center;html=1;shape=mxgraph.mockup.containers.browserWindow;rSize=0;strokeColor=#666666;strokeColor2=#008cff;strokeColor3=#c4c4c4;mainText=,;recursiveResize=0;" parent="1" vertex="1">
          <mxGeometry x="-540" y="180" width="1450" height="1070" as="geometry" />
        </mxCell>
        <mxCell id="7PQLIUIUxmbF9pdEmRp1-6" value="My WebSite" style="strokeWidth=1;shadow=0;dashed=0;align=center;html=1;shape=mxgraph.mockup.containers.anchor;fontSize=17;fontColor=#666666;align=left;" parent="7PQLIUIUxmbF9pdEmRp1-5" vertex="1">
          <mxGeometry x="60" y="12" width="110" height="26" as="geometry" />
        </mxCell>
        <mxCell id="7PQLIUIUxmbF9pdEmRp1-7" value="https://www.mywebsite.com" style="strokeWidth=1;shadow=0;dashed=0;align=center;html=1;shape=mxgraph.mockup.containers.anchor;rSize=0;fontSize=17;fontColor=#666666;align=left;" parent="7PQLIUIUxmbF9pdEmRp1-5" vertex="1">
          <mxGeometry x="130" y="60" width="250" height="26" as="geometry" />
        </mxCell>
        <mxCell id="7PQLIUIUxmbF9pdEmRp1-8" value="&amp;nbsp; &amp;nbsp; &amp;nbsp; &amp;nbsp; &amp;nbsp; &amp;nbsp; &amp;nbsp; &amp;nbsp; &amp;nbsp; &amp;nbsp; &amp;nbsp; &amp;nbsp; &amp;nbsp; &amp;nbsp; &amp;nbsp; &amp;nbsp; &amp;nbsp; &amp;nbsp; &amp;nbsp; &amp;nbsp; &amp;nbsp; &amp;nbsp; &amp;nbsp; &amp;nbsp; &amp;nbsp; &amp;nbsp; &amp;nbsp; &amp;nbsp; &amp;nbsp; &amp;nbsp; &amp;nbsp; &amp;nbsp; &amp;nbsp; &amp;nbsp; &amp;nbsp; &amp;nbsp; &amp;nbsp; &amp;nbsp; &amp;nbsp; &amp;nbsp; &amp;nbsp; &amp;nbsp; &amp;nbsp; &amp;nbsp; &amp;nbsp; &amp;nbsp; &amp;nbsp; &amp;nbsp; &amp;nbsp; &amp;nbsp; &amp;nbsp; &amp;nbsp; &amp;nbsp; &amp;nbsp; &amp;nbsp; &amp;nbsp; &amp;nbsp; &amp;nbsp; &amp;nbsp; &amp;nbsp; &amp;nbsp; &amp;nbsp; &amp;nbsp; &amp;nbsp; &amp;nbsp; &amp;nbsp; &amp;nbsp; &amp;nbsp; &amp;nbsp; &amp;nbsp; &amp;nbsp; &amp;nbsp; &amp;nbsp; &amp;nbsp; &amp;nbsp; &amp;nbsp; &amp;nbsp; &amp;nbsp; &amp;nbsp; &amp;nbsp; &amp;nbsp; &amp;nbsp; &amp;nbsp; &amp;nbsp; &amp;nbsp; &amp;nbsp; &amp;nbsp; &amp;nbsp; &amp;nbsp; &amp;nbsp; &amp;nbsp; &amp;nbsp; &amp;nbsp; &amp;nbsp; &amp;nbsp; &amp;nbsp; &amp;nbsp; &amp;nbsp; &amp;nbsp; &amp;nbsp; &amp;nbsp; &amp;nbsp; &amp;nbsp; &amp;nbsp; &amp;nbsp; &amp;nbsp; &amp;nbsp; &amp;nbsp; &amp;nbsp; &amp;nbsp; &amp;nbsp; &amp;nbsp; &amp;nbsp; &amp;nbsp; &amp;nbsp; &amp;nbsp; &amp;nbsp; &amp;nbsp; &amp;nbsp; &amp;nbsp; &amp;nbsp; &amp;nbsp; &amp;nbsp; &amp;nbsp; &amp;nbsp; &amp;nbsp; &amp;nbsp; &amp;nbsp; &amp;nbsp; &amp;nbsp; &amp;nbsp; &amp;nbsp; &amp;nbsp; &amp;nbsp; &amp;nbsp; &amp;nbsp; &amp;nbsp; &amp;nbsp; &amp;nbsp; &amp;nbsp; &amp;nbsp; &amp;nbsp; &amp;nbsp; &amp;nbsp; &amp;nbsp; &amp;nbsp; &amp;nbsp; &amp;nbsp; &amp;nbsp; &amp;nbsp; &amp;nbsp; &amp;nbsp; &amp;nbsp; &amp;nbsp; &amp;nbsp; &amp;nbsp; &amp;nbsp; &amp;nbsp; &amp;nbsp; &amp;nbsp; &amp;nbsp; &amp;nbsp; &amp;nbsp; &amp;nbsp; &amp;nbsp; &amp;nbsp;로그인 | 회원가입&amp;nbsp; &amp;nbsp; &amp;nbsp; &amp;nbsp;&amp;nbsp;" style="html=1;shadow=0;dashed=0;shape=mxgraph.bootstrap.rrect;rSize=5;strokeColor=#D6D8DB;strokeWidth=1;fillColor=#E2E3E5;fontColor=#383D41;whiteSpace=wrap;align=left;verticalAlign=middle;spacingLeft=10;" parent="7PQLIUIUxmbF9pdEmRp1-5" vertex="1">
          <mxGeometry x="2" y="110" width="1440" height="40" as="geometry" />
        </mxCell>
        <mxCell id="7PQLIUIUxmbF9pdEmRp1-9" value="&lt;h1&gt;사이트로고&lt;/h1&gt;" style="rounded=0;whiteSpace=wrap;html=1;" parent="7PQLIUIUxmbF9pdEmRp1-5" vertex="1">
          <mxGeometry x="30" y="175" width="140" height="60" as="geometry" />
        </mxCell>
        <mxCell id="7PQLIUIUxmbF9pdEmRp1-11" value="홈 |" style="text;html=1;strokeColor=none;fillColor=none;align=center;verticalAlign=middle;whiteSpace=wrap;rounded=0;" parent="7PQLIUIUxmbF9pdEmRp1-5" vertex="1">
          <mxGeometry x="1080" y="120" width="40" height="20" as="geometry" />
        </mxCell>
        <mxCell id="7PQLIUIUxmbF9pdEmRp1-12" value="&lt;h1&gt;&lt;span style=&quot;font-size: 17px&quot;&gt;TOP3 MEETING&lt;/span&gt;&lt;/h1&gt;" style="text;html=1;strokeColor=none;fillColor=none;align=center;verticalAlign=middle;whiteSpace=wrap;rounded=0;" parent="7PQLIUIUxmbF9pdEmRp1-5" vertex="1">
          <mxGeometry x="285" y="530" width="150" height="20" as="geometry" />
        </mxCell>
        <mxCell id="7PQLIUIUxmbF9pdEmRp1-14" value="" style="whiteSpace=wrap;html=1;aspect=fixed;" parent="7PQLIUIUxmbF9pdEmRp1-5" vertex="1">
          <mxGeometry x="285" y="600" width="240" height="240" as="geometry" />
        </mxCell>
        <mxCell id="7PQLIUIUxmbF9pdEmRp1-15" value="" style="whiteSpace=wrap;html=1;aspect=fixed;" parent="7PQLIUIUxmbF9pdEmRp1-5" vertex="1">
          <mxGeometry x="620" y="600" width="240" height="240" as="geometry" />
        </mxCell>
        <mxCell id="7PQLIUIUxmbF9pdEmRp1-16" value="" style="whiteSpace=wrap;html=1;aspect=fixed;" parent="7PQLIUIUxmbF9pdEmRp1-5" vertex="1">
          <mxGeometry x="985" y="600" width="240" height="240" as="geometry" />
        </mxCell>
        <mxCell id="7PQLIUIUxmbF9pdEmRp1-17" value="가입하기" style="html=1;shadow=0;dashed=0;shape=mxgraph.bootstrap.rrect;rSize=5;strokeColor=none;strokeWidth=1;fillColor=#0085FC;fontColor=#FFFFFF;whiteSpace=wrap;align=center;verticalAlign=middle;spacingLeft=0;fontStyle=0;fontSize=16;spacing=5;" parent="7PQLIUIUxmbF9pdEmRp1-5" vertex="1">
          <mxGeometry x="294" y="790" width="80" height="40" as="geometry" />
        </mxCell>
        <mxCell id="7PQLIUIUxmbF9pdEmRp1-18" value="가입하기" style="html=1;shadow=0;dashed=0;shape=mxgraph.bootstrap.rrect;rSize=5;strokeColor=none;strokeWidth=1;fillColor=#0085FC;fontColor=#FFFFFF;whiteSpace=wrap;align=center;verticalAlign=middle;spacingLeft=0;fontStyle=0;fontSize=16;spacing=5;" parent="7PQLIUIUxmbF9pdEmRp1-5" vertex="1">
          <mxGeometry x="630" y="790" width="80" height="40" as="geometry" />
        </mxCell>
        <mxCell id="7PQLIUIUxmbF9pdEmRp1-19" value="가입하기" style="html=1;shadow=0;dashed=0;shape=mxgraph.bootstrap.rrect;rSize=5;strokeColor=none;strokeWidth=1;fillColor=#0085FC;fontColor=#FFFFFF;whiteSpace=wrap;align=center;verticalAlign=middle;spacingLeft=0;fontStyle=0;fontSize=16;spacing=5;" parent="7PQLIUIUxmbF9pdEmRp1-5" vertex="1">
          <mxGeometry x="1000" y="790" width="80" height="40" as="geometry" />
        </mxCell>
        <mxCell id="7PQLIUIUxmbF9pdEmRp1-21" value="" style="html=1;shadow=0;dashed=0;shape=mxgraph.bootstrap.rrect;rSize=5;strokeColor=#D6D8DB;strokeWidth=1;fillColor=#E2E3E5;fontColor=#383D41;whiteSpace=wrap;align=left;verticalAlign=middle;spacingLeft=10;" parent="7PQLIUIUxmbF9pdEmRp1-5" vertex="1">
          <mxGeometry x="2" y="1030" width="1448" height="40" as="geometry" />
        </mxCell>
        <mxCell id="7PQLIUIUxmbF9pdEmRp1-22" value="카테고리1" style="rounded=0;whiteSpace=wrap;html=1;" parent="7PQLIUIUxmbF9pdEmRp1-5" vertex="1">
          <mxGeometry x="30" y="260" width="120" height="60" as="geometry" />
        </mxCell>
        <mxCell id="7PQLIUIUxmbF9pdEmRp1-23" value="카테고리2" style="rounded=0;whiteSpace=wrap;html=1;" parent="7PQLIUIUxmbF9pdEmRp1-5" vertex="1">
          <mxGeometry x="30" y="320" width="120" height="60" as="geometry" />
        </mxCell>
        <mxCell id="7PQLIUIUxmbF9pdEmRp1-24" value="카테고리3" style="rounded=0;whiteSpace=wrap;html=1;" parent="7PQLIUIUxmbF9pdEmRp1-5" vertex="1">
          <mxGeometry x="30" y="375" width="120" height="60" as="geometry" />
        </mxCell>
        <mxCell id="7PQLIUIUxmbF9pdEmRp1-25" value="JOIN US" style="text;html=1;strokeColor=none;fillColor=none;align=center;verticalAlign=middle;whiteSpace=wrap;rounded=0;" parent="7PQLIUIUxmbF9pdEmRp1-5" vertex="1">
          <mxGeometry x="40" y="120" width="60" height="20" as="geometry" />
        </mxCell>
        <mxCell id="3QDyhTkuZhkd1hFY1KfW-1" value="" style="verticalLabelPosition=bottom;shadow=0;dashed=0;align=center;html=1;verticalAlign=top;strokeWidth=1;shape=mxgraph.mockup.graphics.simpleIcon;strokeColor=#999999;rounded=0;labelBackgroundColor=none;fontFamily=Verdana;fontSize=14;fontColor=#000000;comic=1;" vertex="1" parent="7PQLIUIUxmbF9pdEmRp1-5">
          <mxGeometry x="290" y="175" width="930" height="310" as="geometry" />
        </mxCell>
      </root>
    </mxGraphModel>
  </diagram>
</mxfile>
